<svg xmlns="http://www.w3.org/2000/svg" width="218" height="147"><path fill="#A0DCFD" fill-rule="evenodd" d="M377.425 84.453L251.062-152.475c-27.297 4.052-57.41-5.414-85.526-3.424-6.096.432-12.438 1.576-16.618 5.955-12.61 13.206 5.425 39.545 23.737 46.498 18.312 6.953 39.302 6.588 54.134 21.131 14.447 14.166 17.021 38.202 10.282 55.61-6.737 17.41-20.78 29.397-35.259 39.357C135.944 57.96 49.927 76.004 3.04 143.502c-12.17 17.523-21.363 39.29-18.355 62.842 1.449 11.34 5.633 22.311 11.195 32.669l381.546-154.56z"/></svg>