<svg xmlns="http://www.w3.org/2000/svg" xmlns:xlink="http://www.w3.org/1999/xlink" width="1336" height="125"><defs><path id="a" d="M0 .902h439v420H0z"/></defs><g fill="none" fill-rule="evenodd" transform="translate(-10 -140)"><g opacity=".669"><path fill="#FFF" d="M1397.937 119.846l-37.027 231.717c-25.558 4.126-49.324 20.265-74.956 26.33-5.557 1.314-11.56 2.104-16.669-.39-15.41-7.52-7.75-34.374 6.323-45.184 14.071-10.81 32.85-16.269 41.414-32.435 8.342-15.747 2.989-36.44-8.538-49.067-11.525-12.627-27.822-18.74-43.863-23.048-72.97-19.591-155.189-10.98-218.338-54.237-16.392-11.23-31.486-26.807-36.3-47.219-2.318-9.828-2.085-20.1-.433-30.24l388.387 23.773z" opacity=".121"/></g><mask id="b" fill="#fff"><use xlink:href="#a"/></mask><path fill="#ECF3FC" d="M439 420.793c-9.915-18.567 80.17-37.134 70.255-55.701-15.848-29.678-32.844-60.634-61.006-78.815-42.572-27.485-103.759-21.147-138.358-58.296-17.626-18.925-24.29-45.322-31.562-70.22-7.273-24.898-116.923-51.062-137.884-66.144-18.533-13.335 57.517-15.523 35.983-22.989C143.52 57.22-34.565 32.332-50 .902v420l489-.11z" mask="url(#b)" opacity=".124"/></g></svg>