<svg width="24" viewBox="0 0 24 24"><g fill="none" fill-rule="evenodd" stroke="currentColor" stroke-linecap="round" stroke-linejoin="round" stroke-width="1.2"><path d="M11.185 10.213L3.698 10.213M11.185 13.475L3.698 13.475M9.448 6.952L3.698 6.952" transform="translate(4.8 3.2)"></path><g><path d="M13.595 17H1.345C.711 17 .2 16.488.2 15.856V1.31C.2.68.712.167 1.344.167h12.251c.632 0 1.144.512 1.144 1.144v14.545c0 .632-.512 1.144-1.144 1.144z" transform="translate(4.8 3.2) translate(0 .033)"></path><path d="M3.922.38v1.058c0 .372.3.672.672.672h1.66c-.005.04-.013.08-.013.122 0 .678.55 1.228 1.228 1.228.68 0 1.23-.55 1.23-1.228 0-.042-.009-.081-.013-.122h1.66c.37 0 .671-.3.671-.672V.38" transform="translate(4.8 3.2) translate(0 .033)"></path></g></g></svg>